<svg width="24" height="24" viewBox="0 0 24 24" fill="none" xmlns="http://www.w3.org/2000/svg">
<path d="M0 12C0 5.37258 5.37258 0 12 0C18.6274 0 24 5.37258 24 12C24 18.6274 18.6274 24 12 24C5.37258 24 0 18.6274 0 12Z" fill="url(#paint0_linear_128_426)"/>
<path fill-rule="evenodd" clip-rule="evenodd" d="M9.42234 20C5.81056 18.3734 5.54302 14.4399 8.63001 10.1661C9.06219 10.6658 9.08277 11.6013 10.0603 11.6332C10.2353 10.2512 9.18567 8.97542 9.68988 7.56146C10.1632 6.24319 10.8938 5.1588 12.0669 4C12.0463 6.01993 12.9621 7.3701 13.9396 8.699C14.9892 10.1236 16.152 11.4844 16.9032 13.111C18.1791 15.8645 17.3662 18.2352 14.7011 19.5322C15.1127 17.8419 15.3185 16.2153 13.9088 14.7907C13.7133 15.3754 13.6104 15.8857 13.384 16.3322C13.1473 16.7787 13.0444 17.5867 12.2418 17.204C11.5935 16.8957 11.4186 16.3003 11.6758 15.6093C11.9948 14.7482 12.6225 14.0146 12.6534 12.7708C10.3587 14.7375 7.79652 16.2897 9.42234 20Z" fill="#EB3253"/>
<defs>
<linearGradient id="paint0_linear_128_426" x1="12" y1="0" x2="12" y2="24" gradientUnits="userSpaceOnUse">
<stop stop-color="white"/>
<stop offset="1" stop-color="#EBEBEB"/>
</linearGradient>
</defs>
</svg>
