<svg width="97" height="28" viewBox="0 0 97 28" fill="none" xmlns="http://www.w3.org/2000/svg">
<rect x="0.77" y="1.6865" width="95.0433" height="24.6267" rx="3.56333" stroke="url(#paint0_linear_128_542)" stroke-width="1.54"/>
<rect x="4.33331" y="5.25" width="53.6667" height="17.5" rx="1.08333" fill="white"/>
<rect x="4.33331" y="5.25" width="53.6667" height="17.5" rx="1.08333" fill="url(#paint1_linear_128_542)"/>
<path d="M9.34919 17.5V10.48H10.2706L12.8153 15.7596L15.3454 10.48H16.2766V17.4951H15.3113V12.6932L13.0444 17.5H12.5813L10.3096 12.6932V17.5H9.34919ZM18.2382 17.5L20.5197 10.48H21.9871L24.2686 17.5H23.2107L21.1096 11.0942H21.3729L19.2961 17.5H18.2382ZM19.4229 15.9156V14.9601H23.0889V15.9156H19.4229ZM26.2265 17.5V10.48H29.0638C29.132 10.48 29.2165 10.4832 29.3173 10.4897C29.418 10.493 29.5139 10.5027 29.6049 10.519C29.9949 10.5807 30.3199 10.714 30.5799 10.9187C30.8432 11.1235 31.0398 11.3819 31.1698 11.6939C31.2998 12.0059 31.3648 12.3504 31.3648 12.7274C31.3648 13.2864 31.2218 13.769 30.9358 14.1752C30.6498 14.5782 30.2208 14.8301 29.6488 14.9309L29.2344 14.9796H27.2454V17.5H26.2265ZM30.3313 17.5L28.9468 14.6432L29.9754 14.38L31.4964 17.5H30.3313ZM27.2454 14.0144H29.0248C29.0898 14.0144 29.1613 14.0111 29.2393 14.0046C29.3205 13.9981 29.3969 13.9867 29.4684 13.9705C29.6764 13.9217 29.8438 13.8324 29.9705 13.7024C30.0973 13.5691 30.1883 13.4164 30.2435 13.2441C30.2988 13.0719 30.3264 12.8996 30.3264 12.7274C30.3264 12.5551 30.2988 12.3845 30.2435 12.2155C30.1883 12.0432 30.0973 11.8921 29.9705 11.7621C29.8438 11.6289 29.6764 11.5379 29.4684 11.4891C29.3969 11.4696 29.3205 11.4566 29.2393 11.4501C29.1613 11.4436 29.0898 11.4404 29.0248 11.4404H27.2454V14.0144ZM33.6512 17.5V10.48H34.6701V13.756L37.6097 10.48H38.8772L35.7718 13.9071L39.1063 17.5H37.7998L34.6701 14.146V17.5H33.6512ZM40.8759 17.5V10.48H45.3609V11.4404H41.8948V13.4099H44.7759V14.3702H41.8948V16.5396H45.3609V17.5H40.8759ZM49.3651 17.5V11.4404H47.03V10.48H52.7191V11.4404H50.384V17.5H49.3651Z" fill="black"/>
<path d="M62.1665 17V10.175H64.9745C65.579 10.175 66.0958 10.2725 66.5248 10.4675C66.9603 10.6625 67.295 10.942 67.529 11.306C67.763 11.67 67.88 12.1022 67.88 12.6027C67.88 13.1032 67.763 13.5355 67.529 13.8995C67.295 14.2635 66.9603 14.543 66.5248 14.738C66.0958 14.933 65.579 15.0305 64.9745 15.0305H62.8685L63.434 14.4357V17H62.1665ZM63.434 14.5722L62.8685 13.958H64.916C65.475 13.958 65.8943 13.841 66.1737 13.607C66.4598 13.3665 66.6028 13.0317 66.6028 12.6027C66.6028 12.1672 66.4598 11.8325 66.1737 11.5985C65.8943 11.3645 65.475 11.2475 64.916 11.2475H62.8685L63.434 10.6235V14.5722ZM69.1999 17V10.175H72.0079C72.6124 10.175 73.1292 10.2725 73.5582 10.4675C73.9937 10.6625 74.3284 10.942 74.5624 11.306C74.7964 11.67 74.9134 12.1022 74.9134 12.6027C74.9134 13.1032 74.7964 13.5355 74.5624 13.8995C74.3284 14.257 73.9937 14.5332 73.5582 14.7282C73.1292 14.9167 72.6124 15.011 72.0079 15.011H69.9019L70.4674 14.4357V17H69.1999ZM73.6654 17L71.9397 14.5235H73.2949L75.0304 17H73.6654ZM70.4674 14.5722L69.9019 13.9677H71.9494C72.5084 13.9677 72.9277 13.8475 73.2072 13.607C73.4932 13.3665 73.6362 13.0317 73.6362 12.6027C73.6362 12.1672 73.4932 11.8325 73.2072 11.5985C72.9277 11.3645 72.5084 11.2475 71.9494 11.2475H69.9019L70.4674 10.6235V14.5722ZM79.5837 17.0975C79.0507 17.0975 78.5599 17.0098 78.1114 16.8342C77.6629 16.6587 77.2729 16.415 76.9414 16.103C76.6099 15.7845 76.3532 15.414 76.1712 14.9915C75.9892 14.5625 75.8982 14.0945 75.8982 13.5875C75.8982 13.0805 75.9892 12.6157 76.1712 12.1932C76.3532 11.7642 76.6099 11.3937 76.9414 11.0817C77.2729 10.7632 77.6629 10.5162 78.1114 10.3407C78.5599 10.1652 79.0474 10.0775 79.5739 10.0775C80.1069 10.0775 80.5944 10.1652 81.0364 10.3407C81.4849 10.5162 81.8749 10.7632 82.2064 11.0817C82.5379 11.3937 82.7947 11.7642 82.9767 12.1932C83.1587 12.6157 83.2497 13.0805 83.2497 13.5875C83.2497 14.0945 83.1587 14.5625 82.9767 14.9915C82.7947 15.4205 82.5379 15.791 82.2064 16.103C81.8749 16.415 81.4849 16.6587 81.0364 16.8342C80.5944 17.0098 80.1102 17.0975 79.5837 17.0975ZM79.5739 15.986C79.9184 15.986 80.2369 15.9275 80.5294 15.8105C80.8219 15.6935 81.0754 15.5277 81.2899 15.3132C81.5044 15.0922 81.6702 14.8387 81.7872 14.5527C81.9107 14.2602 81.9724 13.9385 81.9724 13.5875C81.9724 13.2365 81.9107 12.918 81.7872 12.632C81.6702 12.3395 81.5044 12.086 81.2899 11.8715C81.0754 11.6505 80.8219 11.4815 80.5294 11.3645C80.2369 11.2475 79.9184 11.189 79.5739 11.189C79.2294 11.189 78.9109 11.2475 78.6184 11.3645C78.3324 11.4815 78.0789 11.6505 77.8579 11.8715C77.6434 12.086 77.4744 12.3395 77.3509 12.632C77.2339 12.918 77.1754 13.2365 77.1754 13.5875C77.1754 13.932 77.2339 14.2505 77.3509 14.543C77.4744 14.8355 77.6434 15.0922 77.8579 15.3132C78.0724 15.5277 78.3259 15.6935 78.6184 15.8105C78.9109 15.9275 79.2294 15.986 79.5739 15.986ZM84.6474 17V10.175H87.6309C88.3719 10.175 89.0219 10.318 89.5809 10.604C90.1399 10.89 90.5754 11.2865 90.8874 11.7935C91.1994 12.3005 91.3554 12.8985 91.3554 13.5875C91.3554 14.27 91.1994 14.868 90.8874 15.3815C90.5754 15.8885 90.1399 16.285 89.5809 16.571C89.0219 16.857 88.3719 17 87.6309 17H84.6474ZM85.9149 15.9275H87.5724C88.0859 15.9275 88.5279 15.83 88.8984 15.635C89.2754 15.44 89.5646 15.167 89.7661 14.816C89.9741 14.465 90.0781 14.0555 90.0781 13.5875C90.0781 13.113 89.9741 12.7035 89.7661 12.359C89.5646 12.008 89.2754 11.735 88.8984 11.54C88.5279 11.345 88.0859 11.2475 87.5724 11.2475H85.9149V15.9275Z" fill="white"/>
<defs>
<linearGradient id="paint0_linear_128_542" x1="0" y1="13.9998" x2="96.5833" y2="13.9998" gradientUnits="userSpaceOnUse">
<stop stop-color="#FD3237"/>
<stop offset="1" stop-color="#7733FC"/>
</linearGradient>
<linearGradient id="paint1_linear_128_542" x1="4.33331" y1="14" x2="58" y2="14" gradientUnits="userSpaceOnUse">
<stop stop-color="#FD3237"/>
<stop offset="1" stop-color="#7733FC"/>
</linearGradient>
</defs>
</svg>
