<svg width="24" height="24" viewBox="0 0 24 24" fill="none" xmlns="http://www.w3.org/2000/svg">
<path d="M0 12C0 5.37258 5.37258 0 12 0C18.6274 0 24 5.37258 24 12C24 18.6274 18.6274 24 12 24C5.37258 24 0 18.6274 0 12Z" fill="url(#paint0_linear_128_338)"/>
<path d="M10.2111 9.39878C12.8618 9.39878 14.8424 8.35092 14.8424 7.41396C14.8424 6.4771 12.8617 5.4292 10.2111 5.4292C7.56045 5.4292 5.57983 6.4771 5.57983 7.41396C5.57983 8.35092 7.56041 9.39878 10.2111 9.39878Z" fill="white"/>
<path d="M10.2108 17.3383C10.5977 17.3383 10.9701 17.3158 11.3243 17.2748C11.0257 16.8911 10.7788 16.4653 10.5938 16.008C10.4668 16.0123 10.3392 16.0153 10.2108 16.0153C8.69621 16.0153 7.26186 15.7152 6.17209 15.1703C5.95752 15.063 5.76006 14.9477 5.57959 14.8257V15.3536C5.57959 16.2904 7.56016 17.3383 10.2108 17.3383Z" fill="white"/>
<path d="M10.2109 14.6918C10.2245 14.6918 10.2378 14.6916 10.2514 14.6916C10.2243 14.4747 10.2101 14.2538 10.2101 14.0297C10.2101 13.8057 10.2242 13.585 10.2514 13.3683C10.2378 13.3683 10.2244 13.3688 10.2109 13.3688C8.6963 13.3688 7.26199 13.0686 6.17218 12.5237C5.95756 12.4164 5.76006 12.3012 5.57959 12.1792V12.707C5.57963 13.6439 7.56021 14.6918 10.2109 14.6918Z" fill="white"/>
<path d="M10.2109 12.0453C10.3422 12.0453 10.4717 12.0427 10.5996 12.0376C10.805 11.5337 11.0857 11.0683 11.4279 10.6555C11.0317 10.6992 10.6245 10.7223 10.2109 10.7223C8.6963 10.7223 7.26199 10.4222 6.17218 9.87729C5.95756 9.76996 5.76006 9.65474 5.57959 9.53271V10.0606C5.57963 10.9975 7.56021 12.0453 10.2109 12.0453Z" fill="white"/>
<path d="M12.196 11.8364C11.9097 12.2668 11.7052 12.756 11.6046 13.2817C11.5581 13.524 11.5336 13.774 11.5336 14.0297C11.5336 14.2219 11.5476 14.4108 11.5741 14.5958C11.6393 15.0502 11.7816 15.4799 11.9875 15.8714C12.2035 16.2821 12.4892 16.6507 12.829 16.961C13.5352 17.606 14.4744 18 15.5039 18C17.6931 18 19.4742 16.2189 19.4742 14.0297C19.4742 11.8404 17.6931 10.0593 15.5039 10.0593C15.2776 10.0593 15.0558 10.0786 14.8397 10.1152C13.7391 10.3013 12.7912 10.9418 12.196 11.8364Z" fill="white"/>
<defs>
<linearGradient id="paint0_linear_128_338" x1="12" y1="0" x2="12" y2="24" gradientUnits="userSpaceOnUse">
<stop stop-color="#475361"/>
<stop offset="1" stop-color="#1D1D1D"/>
</linearGradient>
</defs>
</svg>
