<svg width="24" height="24" viewBox="0 0 24 24" fill="none" xmlns="http://www.w3.org/2000/svg">
<path d="M0 12C0 5.37258 5.37258 0 12 0C18.6274 0 24 5.37258 24 12C24 18.6274 18.6274 24 12 24C5.37258 24 0 18.6274 0 12Z" fill="url(#paint0_linear_128_372)"/>
<path d="M8.63141 13.88C8.41749 13.6661 8.33693 13.7736 8.28935 13.8212C7.05748 15.0531 5.96385 18.0254 6.54201 17.735C8.64673 16.6783 8.99742 16.9929 10.2292 15.7611C10.2769 15.7135 10.3864 15.635 10.1662 15.4148L8.63141 13.88Z" fill="white"/>
<path d="M15.2723 13.8636C15.2164 13.6859 15.3334 13.6003 15.3826 13.5472C18.1014 10.6119 19.8294 6.70108 18.5489 5.42049C17.2751 4.14681 13.485 5.92524 10.5504 8.62448C10.4924 8.67795 10.3779 8.77921 10.1732 8.73646L9.25894 8.51876C9.0051 8.45839 8.64642 8.55986 8.4619 8.74437L5.1071 12.0991C4.92259 12.2837 4.98254 12.4678 5.24033 12.5083L7.66675 12.8896C7.92455 12.9302 8.28643 12.8123 8.4709 12.6278C8.4709 12.6278 8.5961 12.5022 8.72189 12.628C9.41586 13.3219 10.7054 14.6115 11.3666 15.2727C11.498 15.404 11.3722 15.529 11.3722 15.529C11.1876 15.7136 11.0698 16.0754 11.1104 16.3332L11.4916 18.7596C11.5321 19.0175 11.7163 19.0774 11.9008 18.8929L15.2556 15.538C15.4401 15.3535 15.5416 14.9949 15.4812 14.7411L15.2723 13.8636ZM14.5212 9.52942C13.9529 8.9612 13.9529 8.04001 14.5212 7.47187C15.0893 6.90364 16.0105 6.90364 16.5788 7.47187C17.1469 8.03997 17.1469 8.9612 16.5788 9.52938C16.0105 10.0976 15.0893 10.0976 14.5212 9.52942Z" fill="white"/>
<defs>
<linearGradient id="paint0_linear_128_372" x1="12" y1="0" x2="12" y2="24" gradientUnits="userSpaceOnUse">
<stop stop-color="#475361"/>
<stop offset="1" stop-color="#1D1D1D"/>
</linearGradient>
</defs>
</svg>
