<svg width="24" height="24" viewBox="0 0 24 24" fill="none" xmlns="http://www.w3.org/2000/svg">
<path d="M0 12C0 5.37258 5.37258 0 12 0C18.6274 0 24 5.37258 24 12C24 18.6274 18.6274 24 12 24C5.37258 24 0 18.6274 0 12Z" fill="url(#paint0_linear_128_364)"/>
<path d="M19 10.8333V13.1667C19 13.8102 18.4768 14.3333 17.8333 14.3333H17.5157C17.0695 16.9775 14.7695 19 12 19C11.7421 19 11.5333 18.7913 11.5333 18.5333C11.5333 18.2754 11.7421 18.0667 12 18.0667C14.573 18.0667 16.6667 15.973 16.6667 13.4V10.6C16.6667 8.02695 14.573 5.93333 12 5.93333C9.42695 5.93333 7.33333 8.02695 7.33333 10.6V13.8667C7.33333 14.1246 7.12461 14.3333 6.86667 14.3333H6.16667C5.52318 14.3333 5 13.8102 5 13.1667V10.8333C5 10.1898 5.52318 9.66667 6.16667 9.66667H6.48431C6.93047 7.02253 9.23053 5 12 5C14.7695 5 17.0695 7.02253 17.5157 9.66667H17.8333C18.4768 9.66667 19 10.1898 19 10.8333ZM12 6.86667C9.94147 6.86667 8.26667 8.54147 8.26667 10.6V12.9333C8.26667 14.9919 9.94147 16.6667 12 16.6667C14.0585 16.6667 15.7333 14.9919 15.7333 12.9333V10.6C15.7333 8.54147 14.0585 6.86667 12 6.86667Z" fill="white"/>
<defs>
<linearGradient id="paint0_linear_128_364" x1="12" y1="0" x2="12" y2="24" gradientUnits="userSpaceOnUse">
<stop stop-color="#475361"/>
<stop offset="1" stop-color="#1D1D1D"/>
</linearGradient>
</defs>
</svg>
