<svg width="24" height="24" viewBox="0 0 24 24" fill="none" xmlns="http://www.w3.org/2000/svg">
<path d="M0 12C0 5.37258 5.37258 0 12 0C18.6274 0 24 5.37258 24 12C24 18.6274 18.6274 24 12 24C5.37258 24 0 18.6274 0 12Z" fill="url(#paint0_linear_128_352)"/>
<path d="M6.35596 10.2791C6.15977 10.2791 6.00073 10.4381 6.00073 10.6343V15.8518C6.00073 16.048 6.1598 16.207 6.35596 16.207H8.49619V10.2791H6.35596Z" fill="white"/>
<path d="M17.9999 12.2407C17.9999 11.7898 17.7576 11.3943 17.3963 11.1778C17.5347 10.9779 17.6159 10.7355 17.6159 10.4745C17.6159 9.79169 17.0604 9.23616 16.3776 9.23616H13.7635C13.8436 8.8731 13.9532 8.32829 14.0295 7.75796C14.228 6.27378 14.0923 5.45067 13.6024 5.16761C13.297 4.99117 12.9677 4.95538 12.6752 5.06674C12.4492 5.15281 12.144 5.36443 11.9701 5.88382L11.2831 7.68275C10.9348 8.54296 9.86812 9.44605 9.2066 9.9454V16.3642C10.4326 16.7938 11.712 17.0115 13.0172 17.0115H15.8656C16.5484 17.0115 17.1039 16.456 17.1039 15.7732C17.1039 15.5341 17.0358 15.3105 16.9179 15.1211C17.3307 14.92 17.6159 14.4961 17.6159 14.0069C17.6159 13.7459 17.5347 13.5036 17.3963 13.3037C17.7576 13.0871 17.9999 12.6917 17.9999 12.2407Z" fill="white"/>
<defs>
<linearGradient id="paint0_linear_128_352" x1="12" y1="0" x2="12" y2="24" gradientUnits="userSpaceOnUse">
<stop stop-color="#475361"/>
<stop offset="1" stop-color="#1D1D1D"/>
</linearGradient>
</defs>
</svg>
