<svg width="25" height="24" viewBox="0 0 25 24" fill="none" xmlns="http://www.w3.org/2000/svg">
<path d="M0.5 12C0.5 5.37258 5.87258 0 12.5 0C19.1274 0 24.5 5.37258 24.5 12C24.5 18.6274 19.1274 24 12.5 24C5.87258 24 0.5 18.6274 0.5 12Z" fill="url(#paint0_linear_127_1479)"/>
<path d="M19.5 10.8333V13.1667C19.5 13.8102 18.9768 14.3333 18.3333 14.3333H18.0157C17.5695 16.9775 15.2695 19 12.5 19C12.2421 19 12.0333 18.7913 12.0333 18.5333C12.0333 18.2754 12.2421 18.0667 12.5 18.0667C15.073 18.0667 17.1667 15.973 17.1667 13.4V10.6C17.1667 8.02695 15.073 5.93333 12.5 5.93333C9.92695 5.93333 7.83333 8.02695 7.83333 10.6V13.8667C7.83333 14.1246 7.62461 14.3333 7.36667 14.3333H6.66667C6.02318 14.3333 5.5 13.8102 5.5 13.1667V10.8333C5.5 10.1898 6.02318 9.66667 6.66667 9.66667H6.98431C7.43047 7.02253 9.73053 5 12.5 5C15.2695 5 17.5695 7.02253 18.0157 9.66667H18.3333C18.9768 9.66667 19.5 10.1898 19.5 10.8333ZM12.5 6.86667C10.4415 6.86667 8.76667 8.54147 8.76667 10.6V12.9333C8.76667 14.9919 10.4415 16.6667 12.5 16.6667C14.5585 16.6667 16.2333 14.9919 16.2333 12.9333V10.6C16.2333 8.54147 14.5585 6.86667 12.5 6.86667Z" fill="white"/>
<defs>
<linearGradient id="paint0_linear_127_1479" x1="12.5" y1="0" x2="12.5" y2="24" gradientUnits="userSpaceOnUse">
<stop stop-color="#475361"/>
<stop offset="1" stop-color="#1D1D1D"/>
</linearGradient>
</defs>
</svg>
