<svg width="20" height="20" viewBox="0 0 20 20" fill="none" xmlns="http://www.w3.org/2000/svg">
<path d="M0 10C0 4.47715 4.47715 0 10 0C15.5228 0 20 4.47715 20 10C20 15.5228 15.5228 20 10 20C4.47715 20 0 15.5228 0 10Z" fill="url(#paint0_linear_128_919)"/>
<path d="M8.16665 14.5832C7.84265 14.5832 7.89773 14.4608 7.78598 14.1523L6.83331 11.0171L14.1666 6.6665" fill="#D7DBE0"/>
<path d="M8.16663 14.5831C8.41663 14.5831 8.52704 14.4688 8.66663 14.3331L9.99996 13.0366L8.33679 12.0337" fill="#B4BCC2"/>
<path d="M8.33665 12.0341L12.3666 15.0115C12.8266 15.2652 13.1584 15.1338 13.273 14.5846L14.9134 6.85431C15.0813 6.18098 14.6567 5.87548 14.2167 6.07523L4.58423 9.78948C3.92673 10.0532 3.93065 10.4201 4.4644 10.5835L6.93632 11.3551L12.6591 7.74464C12.9292 7.58081 13.1772 7.66881 12.9737 7.84948" fill="white"/>
<defs>
<linearGradient id="paint0_linear_128_919" x1="10" y1="0" x2="10" y2="20" gradientUnits="userSpaceOnUse">
<stop stop-color="#475361"/>
<stop offset="1" stop-color="#1D1D1D"/>
</linearGradient>
</defs>
</svg>
